<svg xmlns="http://www.w3.org/2000/svg" width="26.459" height="32.072" viewBox="0 0 26.459 32.072">
  <g id="bx-lock" transform="translate(0 0)">
    <path id="Shape" d="M24.806,32.072H1.653A1.631,1.631,0,0,1,0,30.469V14.432a1.631,1.631,0,0,1,1.653-1.6H4.961V8.018A8.156,8.156,0,0,1,13.23,0,8.155,8.155,0,0,1,21.5,8.018v4.811h3.307a1.631,1.631,0,0,1,1.653,1.6V30.469A1.631,1.631,0,0,1,24.806,32.072ZM13.23,19.243a3.262,3.262,0,0,1,3.307,3.208,3.2,3.2,0,0,1-1.654,2.761v3.653h8.268V16.036H3.308V28.865h8.268V25.212a3.2,3.2,0,0,1-1.653-2.761A3.262,3.262,0,0,1,13.23,19.243Zm0-16.035A4.893,4.893,0,0,0,8.268,8.018v4.811h9.922V8.018A4.893,4.893,0,0,0,13.23,3.208Z" fill="#0dc5d4"/>
  </g>
</svg>
