<svg id="bx-categories" xmlns="http://www.w3.org/2000/svg" width="26" height="28" viewBox="0 0 26 28">
  <path id="Shape" d="M24.556,28H15.889a1.461,1.461,0,0,1-1.444-1.473V14.737a1.461,1.461,0,0,1,1.444-1.473h8.667A1.461,1.461,0,0,1,26,14.737v11.79A1.461,1.461,0,0,1,24.556,28ZM17.333,16.211v8.842h5.778V16.211ZM10.112,28H1.445A1.461,1.461,0,0,1,0,26.527V19.158a1.461,1.461,0,0,1,1.445-1.474h8.667a1.461,1.461,0,0,1,1.444,1.474v7.368A1.461,1.461,0,0,1,10.112,28ZM2.889,20.632v4.421H8.667V20.632Zm7.223-5.9H1.445A1.461,1.461,0,0,1,0,13.263V1.473A1.461,1.461,0,0,1,1.445,0h8.667a1.461,1.461,0,0,1,1.444,1.473v11.79A1.461,1.461,0,0,1,10.112,14.737ZM2.889,2.948v8.842H8.667V2.948Zm21.667,7.368H15.889a1.461,1.461,0,0,1-1.444-1.473V1.473A1.461,1.461,0,0,1,15.889,0h8.667A1.461,1.461,0,0,1,26,1.473V8.843A1.461,1.461,0,0,1,24.556,10.316ZM17.333,2.948V7.368h5.778V2.948Z" fill="#0dc5d4"/>
</svg>
