<svg id="bx-bookmark-star" xmlns="http://www.w3.org/2000/svg" width="25" height="31.964" viewBox="0 0 25 31.964">
  <path id="Path" d="M2.083,12.785,6.25,9.944l4.167,2.841L9.027,7.813,12.5,4.794,8.333,4.262,6.25,0,4.167,4.262,0,4.794,3.473,7.813Z" transform="translate(6.25 6.393)" fill="#0dc5d4"/>
  <path id="Shape" d="M23.438,31.964a1.527,1.527,0,0,1-.775-.212L12.5,25.813,2.337,31.752a1.533,1.533,0,0,1-1.559-.005A1.611,1.611,0,0,1,0,30.365V1.6A1.582,1.582,0,0,1,1.562,0H23.438A1.582,1.582,0,0,1,25,1.6V30.365a1.611,1.611,0,0,1-.778,1.382A1.536,1.536,0,0,1,23.438,31.964ZM12.5,22.373a1.532,1.532,0,0,1,.775.211l8.6,5.027V3.2H3.125V27.611l8.6-5.027A1.532,1.532,0,0,1,12.5,22.373Z" fill="#0dc5d4"/>
</svg>
