<svg id="bx-user-check" xmlns="http://www.w3.org/2000/svg" width="37.442" height="27" viewBox="0 0 37.442 27">
  <path id="Shape" d="M20.9,27H1.9A1.917,1.917,0,0,1,0,25.071v-.964A12.5,12.5,0,0,1,5.845,13.058,7.786,7.786,0,0,1,3.8,7.714,7.49,7.49,0,0,1,11.4,0,7.489,7.489,0,0,1,19,7.714a7.791,7.791,0,0,1-2.044,5.344A12.5,12.5,0,0,1,22.8,24.107v.964A1.917,1.917,0,0,1,20.9,27ZM11.4,15.429c-4.737,0-7.21,3.874-7.558,7.714H18.959C18.61,19.3,16.139,15.429,11.4,15.429Zm0-11.571A3.663,3.663,0,0,0,7.6,7.714a3.664,3.664,0,0,0,3.8,3.857,3.663,3.663,0,0,0,3.8-3.857A3.663,3.663,0,0,0,11.4,3.857ZM26.589,17.351a1.874,1.874,0,0,1-1.344-.565l-3.8-3.853,2.686-2.727L26.589,12.7l8.17-8.278,2.683,2.732L27.93,16.789A1.869,1.869,0,0,1,26.589,17.351Z" fill="#0dc5d4"/>
</svg>
