<svg xmlns="http://www.w3.org/2000/svg" width="242.794" height="78.659" viewBox="0 0 242.794 78.659">
  <g id="Group" transform="translate(-0.167 -0.237)">
    <path id="Fill_200" data-name="Fill 200" d="M15.414,27.916A16.234,16.234,0,0,1,3.942,23.693a13.992,13.992,0,0,1,0-19.471A16.23,16.23,0,0,1,15.414,0,16.234,16.234,0,0,1,26.887,4.223a13.992,13.992,0,0,1,0,19.471A16.238,16.238,0,0,1,15.414,27.916Zm0-20.762a6.5,6.5,0,0,0-4.766,1.877,6.6,6.6,0,0,0-1.941,4.927,6.688,6.688,0,0,0,1.941,4.926,6.569,6.569,0,0,0,4.824,1.877,6.424,6.424,0,0,0,4.707-1.877,6.6,6.6,0,0,0,1.941-4.926A6.6,6.6,0,0,0,20.18,9.031,6.5,6.5,0,0,0,15.414,7.154Z" transform="translate(136.507 24.835)" fill="#fff"/>
    <path id="Fill_202" data-name="Fill 202" d="M0,17.243V12.082c0-2.933.294-6.275,2.942-9.09A9.677,9.677,0,0,1,10.3,0,13.338,13.338,0,0,1,15.12.88V8.27a6.529,6.529,0,0,0-3.236-1A3.058,3.058,0,0,0,9.413,8.328c-.941,1.232-.941,3.284-.941,4.516v4.4h6.707v6.8H8.472V43.4H0V24.046" transform="translate(169.377 8.472)" fill="#fff"/>
    <path id="Fill_204" data-name="Fill 204" d="M14.414,27.916a18.02,18.02,0,0,1-5.567-.733,11.983,11.983,0,0,1-4.905-3.02A14.057,14.057,0,0,1,0,14.076,14.771,14.771,0,0,1,4,3.753,12.347,12.347,0,0,1,9.119.689,16.5,16.5,0,0,1,14.062,0c4.491,0,7.9,1.285,10.413,3.929,2.494,2.628,3.706,6.1,3.706,10.615v.88H8.59a7.122,7.122,0,0,0,1.589,4.457,5.571,5.571,0,0,0,4.353,1.642,6.935,6.935,0,0,0,3.412-.761,5.121,5.121,0,0,0,1.824-2.171l8,.821a11.706,11.706,0,0,1-5.06,6.569A15.329,15.329,0,0,1,14.414,27.916Zm.235-22.051a5.6,5.6,0,0,0-5.765,4.516H20.356a6.633,6.633,0,0,0-1.706-3.05A5.728,5.728,0,0,0,14.649,5.865Z" transform="translate(185.034 24.834)" fill="#fff"/>
    <path id="Fill_206" data-name="Fill 206" d="M14.414,27.916a18.022,18.022,0,0,1-5.568-.733,11.978,11.978,0,0,1-4.9-3.02A14.057,14.057,0,0,1,0,14.076,14.771,14.771,0,0,1,4,3.753,12.347,12.347,0,0,1,9.119.689,16.5,16.5,0,0,1,14.062,0c4.491,0,7.9,1.285,10.413,3.929,2.494,2.628,3.706,6.1,3.706,10.615v.88H8.59a7.122,7.122,0,0,0,1.589,4.457,5.571,5.571,0,0,0,4.353,1.642,6.935,6.935,0,0,0,3.412-.761,5.121,5.121,0,0,0,1.824-2.171l8,.821a11.706,11.706,0,0,1-5.06,6.569A15.329,15.329,0,0,1,14.414,27.916Zm.235-22.051a5.6,5.6,0,0,0-5.765,4.516H20.356a6.636,6.636,0,0,0-1.706-3.05A5.728,5.728,0,0,0,14.649,5.865Z" transform="translate(214.78 24.834)" fill="#fff"/>
    <path id="Fill_208" data-name="Fill 208" d="M26.945,15.249c-.022,3.012-.272,5.784-2.941,8.386-3,2.932-7.413,3.4-10.531,3.4-3.236,0-7.59-.469-10.59-3.4C.47,21.29,0,18.65,0,15.777V0H8.471V14.428A5.5,5.5,0,0,0,9.942,18.65a5.006,5.006,0,0,0,3.53,1.231,5.264,5.264,0,0,0,3.589-1.231,5.731,5.731,0,0,0,1.424-4.239V11.789C18.507,8.776,18.757,6,21.427,3.4,24.427.469,28.839,0,31.957,0c3.236,0,7.59.469,10.59,3.4,2.412,2.346,2.883,4.985,2.883,7.859V27.037H36.958V12.61a5.5,5.5,0,0,0-1.471-4.223,5.006,5.006,0,0,0-3.53-1.232,5.258,5.258,0,0,0-3.588,1.232,5.683,5.683,0,0,0-1.412,4.223l-.012,1.8Z" transform="translate(88.911 22.706)" fill="#fff"/>
    <path id="Fill_210" data-name="Fill 210" d="M4.006,11.292H0V0H5.111A4.538,4.538,0,0,1,8.575,1.167,3.765,3.765,0,0,1,9.644,3.944a3.066,3.066,0,0,1-.628,2.015,2.7,2.7,0,0,1-1.562.9v.1a1.573,1.573,0,0,1,.594.525l2.546,3.807-4.736,0-1.632-3.3c-.017-.039-.034-.072-.051-.1a1.065,1.065,0,0,1-.1-.253l-.068.034v3.623Zm0-8.2V5.028h.476a1.3,1.3,0,0,0,.868-.255.888.888,0,0,0,.289-.695A1.019,1.019,0,0,0,5.417,3.4a.9.9,0,0,0-.7-.305Z" transform="translate(88.911 59.673)" fill="#fff"/>
    <path id="Fill_212" data-name="Fill 212" d="M5.421,7.9V5.737H2.876v-.76H5.123V2.9H2.876V2.168H5.35V0H0V7.9Z" transform="translate(100.645 63.059)" fill="#fff"/>
    <path id="Fill_214" data-name="Fill 214" d="M3.043,7.905H0L2.746,0H5.934L8.762,7.9H5.708l-.262-.984H3.257L3.043,7.9ZM4.316,2.643a4.081,4.081,0,0,1-.13.889L3.793,5.05H4.946L4.577,3.533a8.936,8.936,0,0,1-.155-.889H4.316Z" transform="translate(106.507 63.059)" fill="#fff"/>
    <path id="Fill_216" data-name="Fill 216" d="M5.3,7.9V5.358H2.876V0H0V7.9Z" transform="translate(116.068 63.059)" fill="#fff"/>
    <path id="Fill_218" data-name="Fill 218" d="M7.742,11.29v-3.1H4.108V7.109h3.21V4.148H4.108V3.1H7.641V0H0V11.29Z" transform="translate(126.633 59.673)" fill="#fff"/>
    <path id="Fill_220" data-name="Fill 220" d="M6.206.687A4.49,4.49,0,0,0,3.793,0,3.7,3.7,0,0,0,1.035,1.019,2.552,2.552,0,0,0,.262,2.9a1.97,1.97,0,0,0,.57,1.458,2.392,2.392,0,0,0,1.379.676l.7.13a1.088,1.088,0,0,1,.548.19.382.382,0,0,1,.1.273.422.422,0,0,1-.155.356.99.99,0,0,1-.619.142,2.8,2.8,0,0,1-1.6-.581L.868,5.31,0,7.538l.262.106a6.6,6.6,0,0,0,2.7.616A3.745,3.745,0,0,0,5.755,7.254a2.541,2.541,0,0,0,.713-1.861,2.109,2.109,0,0,0-.606-1.565,2.68,2.68,0,0,0-1.355-.676l-.915-.2c-.441-.095-.465-.249-.465-.415a.323.323,0,0,1,.143-.285.95.95,0,0,1,.548-.142A3.081,3.081,0,0,1,5.434,2.7Z" transform="translate(135.446 62.881)" fill="#fff"/>
    <path id="Fill_222" data-name="Fill 222" d="M4.446,7.9V2.5l1.617.071V0H0V2.572L1.617,2.5V7.9Z" transform="translate(142.438 63.059)" fill="#fff"/>
    <path id="Fill_224" data-name="Fill 224" d="M3.043,7.905H0L2.746,0H5.934L8.762,7.9H5.708l-.262-.984H3.257L3.043,7.9ZM4.316,2.643a4.081,4.081,0,0,1-.13.889L3.793,5.05H4.946L4.577,3.533a8.936,8.936,0,0,1-.155-.889H4.316Z" transform="translate(148.077 63.059)" fill="#fff"/>
    <path id="Fill_226" data-name="Fill 226" d="M4.446,7.9V2.5l1.617.071V0H0V2.572L1.617,2.5V7.9Z" transform="translate(156.414 63.059)" fill="#fff"/>
    <path id="Fill_228" data-name="Fill 228" d="M5.421,7.9V5.737H2.876v-.76H5.124V2.9H2.876V2.168H5.35V0H0V7.9Z" transform="translate(163.358 63.059)" fill="#fff"/>
    <path id="Fill_230" data-name="Fill 230" d="M4.006,11.292H0V0H5.111A4.54,4.54,0,0,1,8.575,1.167,3.765,3.765,0,0,1,9.644,3.944a3.071,3.071,0,0,1-.627,2.015,2.708,2.708,0,0,1-1.562.9v.1a1.573,1.573,0,0,1,.594.525l2.546,3.807-4.736,0-1.632-3.3c-.017-.039-.034-.072-.051-.1a1.065,1.065,0,0,1-.1-.253l-.068.034v3.623Zm0-8.2V5.028h.476a1.3,1.3,0,0,0,.868-.255.888.888,0,0,0,.289-.695A1.019,1.019,0,0,0,5.417,3.4a.9.9,0,0,0-.7-.305Z" transform="translate(174.316 59.673)" fill="#fff"/>
    <path id="Fill_232" data-name="Fill 232" d="M5.421,7.9V5.737H2.876v-.76H5.124V2.9H2.876V2.168H5.35V0H0V7.9Z" transform="translate(186.051 63.059)" fill="#fff"/>
    <path id="Fill_234" data-name="Fill 234" d="M3.768,7.9H0V0H3.055A4.812,4.812,0,0,1,6.563,1.2a3.878,3.878,0,0,1,1.07,2.857A3.663,3.663,0,0,1,6.611,6.791,3.881,3.881,0,0,1,3.768,7.9ZM2.852,2.417V5.488h.214A1.726,1.726,0,0,0,4.292,5.12a1.487,1.487,0,0,0,.464-1.138A1.65,1.65,0,0,0,4.292,2.8a1.6,1.6,0,0,0-1.13-.38Z" transform="translate(192.71 63.059)" fill="#fff"/>
    <path id="Fill_236" data-name="Fill 236" d="M5.421,7.9V5.737H2.876v-.76H5.124V2.9H2.876V2.168H5.35V0H0V7.9Z" transform="translate(201.569 63.059)" fill="#fff"/>
    <path id="Fill_238" data-name="Fill 238" d="M2.876,7.9V5.143H4.993V3.058H2.876V2.251H5.29V0H0V7.9Z" transform="translate(208.228 63.059)" fill="#fff"/>
    <path id="Fill_240" data-name="Fill 240" d="M0,7.9H2.876V0H0Z" transform="translate(214.673 63.059)" fill="#fff"/>
    <path id="Fill_242" data-name="Fill 242" d="M2.745,7.9V5.214a9.713,9.713,0,0,0-.178-1.458H2.65A10.412,10.412,0,0,0,3.2,4.788L5.173,7.9H7.93V0H5.173V2.512a9.261,9.261,0,0,0,.249,1.873H5.339a8.494,8.494,0,0,0-.749-1.4L2.745,0H0V7.9Z" transform="translate(219.144 63.059)" fill="#fff"/>
    <path id="Fill_243" data-name="Fill 243" d="M5.421,7.9V5.737H2.876v-.76H5.123V2.9H2.876V2.168H5.35V0H0V7.9Z" transform="translate(228.669 63.059)" fill="#fff"/>
    <path id="Fill_244" data-name="Fill 244" d="M3.768,7.9H0V0H3.055A4.812,4.812,0,0,1,6.563,1.2a3.878,3.878,0,0,1,1.07,2.857A3.663,3.663,0,0,1,6.611,6.791,3.881,3.881,0,0,1,3.768,7.9ZM2.852,2.417V5.488h.214A1.726,1.726,0,0,0,4.292,5.12a1.487,1.487,0,0,0,.464-1.138A1.65,1.65,0,0,0,4.292,2.8a1.6,1.6,0,0,0-1.13-.38Z" transform="translate(235.328 63.059)" fill="#fff"/>
    <path id="Fill_245" data-name="Fill 245" d="M38.3,0,25.1,13.03V8.4H12.952V25.268L0,38.313H12.952L38.341,13,63.73,38.313H76.682Z" transform="translate(0.167 0.237)" fill="#fff"/>
    <path id="Fill_246" data-name="Fill 246" d="M38.548,24.717c0,7.82-4.47,13.2-13.158,13.2s-13.243-5.381-13.243-13.2V.084L0,12.192V25.053C0,38.926,8.266,48.512,25.389,48.512s25.389-9.586,25.389-23.459V12.192L38.548,0Z" transform="translate(13.119 30.385)" fill="#fff"/>
  </g>
</svg>
