<svg xmlns="http://www.w3.org/2000/svg" xmlns:xlink="http://www.w3.org/1999/xlink" width="1700" height="682" viewBox="0 0 1700 682">
  <defs>
    <clipPath id="clip-path">
      <rect id="Portfolio_Background_Shape_Copy" data-name="Portfolio Background Shape Copy" width="1700" height="682" fill="#1d1c85"/>
    </clipPath>
  </defs>
  <g id="Group_42" data-name="Group 42" clip-path="url(#clip-path)">
    <g id="Group_18" data-name="Group 18" transform="translate(-1438 -1077)">
      <g id="Waves" transform="translate(0 196)">
        <path id="Path_2" data-name="Path 2" d="M83.488,1266.4s-207.23-277.72,99.914-336.967,351.551-214.77,351.551-392.51S645.97,0,879.1,0" transform="translate(3380.541 504.99) rotate(110)" fill="none" stroke="#0dc5d4" stroke-miterlimit="10" stroke-width="1.5" opacity="0.2"/>
        <path id="Path_2_Copy_2" data-name="Path 2 Copy 2" d="M83.488,1266.4s-207.23-277.72,99.914-336.967,351.551-214.77,351.551-392.51S645.97,0,879.1,0" transform="translate(2610.887 825.351) rotate(110)" fill="none" stroke="#0dc5d4" stroke-miterlimit="10" stroke-width="1.5" opacity="0.2"/>
        <path id="Path_3" data-name="Path 3" d="M0,1262.7s99.914-133.305,344.15-192.552S451.465,722.071,592.086,525.816,858.524,159.226,828.92,0" transform="translate(3267.281 621.288) rotate(110)" fill="none" stroke="#0dc5d4" stroke-miterlimit="10" stroke-width="1.5" opacity="0.2"/>
        <path id="Path_4" data-name="Path 4" d="M0,1188.64C88.813,1014.6,395.957,988.682,481.069,829.456s22.2-340.669,103.615-518.41S847.422,148.117,939.936,0" transform="translate(2978.137 744.454) rotate(110)" fill="none" stroke="#0dc5d4" stroke-miterlimit="10" stroke-width="1.5" opacity="0.2"/>
        <path id="Path_4_Copy" data-name="Path 4 Copy" d="M0,1188.64C88.813,1014.6,395.957,988.682,481.069,829.456s22.2-340.669,103.615-518.41S847.422,148.117,939.936,0" transform="translate(3652.6 407.11) rotate(110)" fill="none" stroke="#0dc5d4" stroke-miterlimit="10" stroke-width="1.5" opacity="0.2"/>
        <path id="Path_4_Copy-2" data-name="Path 4 Copy" d="M0,1188.6c88.825-174.029,395.991-199.96,481.115-359.179s22.218-340.648,103.642-518.379S847.519,148.111,940.044,0" transform="translate(2336.663 1043.359) rotate(120)" fill="none" stroke="#0dc5d4" stroke-miterlimit="10" stroke-width="1.5" opacity="0.2"/>
        <path id="Path_2_Copy_2-2" data-name="Path 2 Copy 2" d="M75.9,1151.172s-188.391-252.45,90.831-306.306,319.592-195.228,319.592-356.8S587.245,0,799.185,0" transform="translate(1396.68 1256.303) rotate(120)" fill="none" stroke="#0dc5d4" stroke-miterlimit="10" stroke-width="1.98" opacity="0.2"/>
        <path id="Path_4-2" data-name="Path 4" d="M0,1080.486c80.739-158.2,359.961-181.764,437.336-326.5s20.185-309.672,94.2-471.24S770.384,134.64,854.487,0" transform="translate(1652.321 1217.439) rotate(120)" fill="none" stroke="#0dc5d4" stroke-miterlimit="10" stroke-width="1.98" opacity="0.2"/>
        <path id="Path_2-2" data-name="Path 2" d="M83.487,1266.348S-123.746,988.655,183.421,929.4,535,714.631,535.01,536.9,646.054.009,879.2,0" transform="translate(2051.753 1092.526) rotate(120)" fill="none" stroke="#0dc5d4" stroke-miterlimit="10" stroke-width="1.5" opacity="0.2"/>
        <path id="Path_3-2" data-name="Path 3" d="M0,1262.646s99.926-133.3,344.18-192.553,107.336-348.056,247.973-544.3S858.624,159.214,829.023,0" transform="translate(1920.026 1187.394) rotate(120)" fill="none" stroke="#0dc5d4" stroke-miterlimit="10" stroke-width="2.178" opacity="0.2"/>
      </g>
      <g id="Group_59_Copy" data-name="Group 59 Copy" transform="translate(4715.961 0.069) rotate(90)">
        <path id="Path_2-3" data-name="Path 2" d="M75.9,1151.172s-188.391-252.45,90.831-306.306,319.592-195.228,319.592-356.8S587.245,0,799.185,0" transform="translate(169.02 203.17)" fill="none" stroke="#fff" stroke-miterlimit="10" stroke-width="1.98" opacity="0.3"/>
        <path id="Path_2_Copy_2-3" data-name="Path 2 Copy 2" d="M75.9,1151.172s-188.391-252.45,90.831-306.306,319.592-195.228,319.592-356.8S587.245,0,799.185,0" transform="translate(660.182 674.41)" fill="none" stroke="#fff" stroke-miterlimit="10" stroke-width="1.98" opacity="0.3"/>
        <path id="Path_3-3" data-name="Path 3" d="M0,1147.806S90.831,1026.63,312.863,972.774s97.56-316.4,225.4-494.8S780.476,144.738,753.563,0" transform="translate(303.585 263.758)" fill="none" stroke="#fff" stroke-miterlimit="10" stroke-width="1.98" opacity="0.3"/>
        <path id="Path_4-3" data-name="Path 4" d="M0,1080.486c80.739-158.2,359.961-181.764,437.336-326.5s20.185-309.672,94.2-471.24S770.384,134.64,854.487,0" transform="translate(498.704 472.45)" fill="none" stroke="#fff" stroke-miterlimit="10" stroke-width="1.98" opacity="0.3"/>
        <path id="Path_4_Copy-3" data-name="Path 4 Copy" d="M0,1080.486c80.739-158.2,359.961-181.764,437.336-326.5s20.185-309.672,94.2-471.24S770.384,134.64,854.487,0" transform="translate(0.814 1.21)" fill="none" stroke="#fff" stroke-miterlimit="10" stroke-width="1.98" opacity="0.3"/>
      </g>
    </g>
  </g>
</svg>
