<svg xmlns="http://www.w3.org/2000/svg" width="135.885" height="43.949" viewBox="0 0 135.885 43.949">
  <g id="Group" transform="translate(-0.094 -0.025)">
    <path id="Fill_2" data-name="Fill 2" d="M8.627,15.6a9.1,9.1,0,0,1-6.421-2.359,7.81,7.81,0,0,1,0-10.879A9.1,9.1,0,0,1,8.627,0a9.1,9.1,0,0,1,6.422,2.359,7.81,7.81,0,0,1,0,10.879A9.1,9.1,0,0,1,8.627,15.6Zm0-11.6A3.637,3.637,0,0,0,5.96,5.046,3.683,3.683,0,0,0,4.874,7.8,3.735,3.735,0,0,0,5.96,10.551,3.677,3.677,0,0,0,8.66,11.6a3.6,3.6,0,0,0,2.634-1.049A3.686,3.686,0,0,0,12.38,7.8a3.686,3.686,0,0,0-1.086-2.752A3.638,3.638,0,0,0,8.627,4Z" transform="translate(76.399 19.769)" fill="#fff"/>
    <path id="Fill_4" data-name="Fill 4" d="M0,9.634V6.75A6.9,6.9,0,0,1,1.646,1.671,5.421,5.421,0,0,1,5.762,0a7.476,7.476,0,0,1,2.7.492V4.62a3.658,3.658,0,0,0-1.811-.557,1.713,1.713,0,0,0-1.383.59,4.389,4.389,0,0,0-.527,2.523V9.634H8.5v3.8H4.742V24.248H0V13.435" transform="translate(94.796 10.626)" fill="#fff"/>
    <path id="Fill_6" data-name="Fill 6" d="M8.067,15.6a7.709,7.709,0,0,1-5.861-2.1A7.846,7.846,0,0,1,0,7.864,8.243,8.243,0,0,1,2.239,2.1,7.566,7.566,0,0,1,7.87,0,7.6,7.6,0,0,1,13.7,2.2a8.182,8.182,0,0,1,2.075,5.931v.492H4.807a3.978,3.978,0,0,0,.889,2.49,3.12,3.12,0,0,0,2.436.917,3.88,3.88,0,0,0,1.91-.426,2.849,2.849,0,0,0,1.021-1.212l4.477.458a6.541,6.541,0,0,1-2.831,3.67A8.59,8.59,0,0,1,8.067,15.6ZM8.2,3.277A3.135,3.135,0,0,0,4.972,5.8h6.421a3.671,3.671,0,0,0-.955-1.7A3.211,3.211,0,0,0,8.2,3.277Z" transform="translate(103.558 19.768)" fill="#fff"/>
    <path id="Fill_8" data-name="Fill 8" d="M8.067,15.6a7.709,7.709,0,0,1-5.861-2.1A7.846,7.846,0,0,1,0,7.864,8.243,8.243,0,0,1,2.239,2.1,7.566,7.566,0,0,1,7.87,0,7.6,7.6,0,0,1,13.7,2.2a8.182,8.182,0,0,1,2.075,5.931v.492H4.807a3.974,3.974,0,0,0,.889,2.49,3.12,3.12,0,0,0,2.436.917,3.88,3.88,0,0,0,1.91-.426,2.849,2.849,0,0,0,1.021-1.212l4.477.458a6.541,6.541,0,0,1-2.831,3.67A8.59,8.59,0,0,1,8.067,15.6ZM8.2,3.277A3.135,3.135,0,0,0,4.972,5.8h6.421a3.667,3.667,0,0,0-.956-1.7A3.206,3.206,0,0,0,8.2,3.277Z" transform="translate(120.206 19.768)" fill="#fff"/>
    <path id="Fill_10" data-name="Fill 10" d="M15.08,8.52a5.846,5.846,0,0,1-1.646,4.686c-1.679,1.638-4.149,1.9-5.894,1.9-1.811,0-4.248-.262-5.927-1.9A5.581,5.581,0,0,1,0,8.815V0H4.741V8.061a3.069,3.069,0,0,0,.823,2.359,2.8,2.8,0,0,0,1.976.688,2.949,2.949,0,0,0,2.009-.688,3.2,3.2,0,0,0,.8-2.368V6.587A5.846,5.846,0,0,1,11.992,1.9C13.671.262,16.14,0,17.885,0c1.811,0,4.248.262,5.927,1.9a5.581,5.581,0,0,1,1.614,4.391v8.815H20.684V7.045a3.068,3.068,0,0,0-.823-2.359A2.8,2.8,0,0,0,17.885,4a2.946,2.946,0,0,0-2.008.688,3.172,3.172,0,0,0-.79,2.359L15.08,8.052Z" transform="translate(49.761 18.58)" fill="#fff"/>
    <path id="Fill_47" data-name="Fill 47" d="M21.438,0,14.05,7.28V4.7h-6.8v9.422L0,21.406H7.249l14.21-14.14,14.209,14.14h7.249Z" transform="translate(0.094 0.025)" fill="#fff"/>
    <path id="Fill_48" data-name="Fill 48" d="M21.574,13.81c0,4.369-2.5,7.375-7.364,7.375S6.8,18.179,6.8,13.81V.047L0,6.812V14C0,21.749,4.626,27.1,14.21,27.1S28.419,21.749,28.419,14V6.812L21.574,0Z" transform="translate(7.342 16.87)" fill="#fff"/>
  </g>
</svg>
