<svg xmlns="http://www.w3.org/2000/svg" width="39.498" height="51" viewBox="0 0 39.498 51">
  <g id="bx-idea" transform="translate(-0.751)">
    <path id="Shape" d="M24.874,51H14.624V45.9h10.25V51Zm0-7.65H14.624A2.559,2.559,0,0,1,12.062,40.8V37.029a22.053,22.053,0,0,1-5.246-5.253,13.251,13.251,0,0,1-2.442-7.55c0-8,6.61-14.026,15.376-14.026s15.375,6.03,15.375,14.026a13.254,13.254,0,0,1-2.442,7.552,21.967,21.967,0,0,1-5.246,5.252V40.8A2.559,2.559,0,0,1,24.874,43.35ZM19.75,15.3C13.81,15.3,9.5,19.054,9.5,24.225c0,4.139,3.56,7.371,6.547,9.353a2.546,2.546,0,0,1,1.14,2.122v2.55h5.125V35.7a2.544,2.544,0,0,1,1.14-2.122C26.439,31.6,30,28.365,30,24.225,30,19.054,25.688,15.3,19.75,15.3Zm16.125-2.242h0l-3.622-3.6,3.623-3.605L39.5,9.453l-3.623,3.6Zm-32.251,0h0L0,9.453,3.623,5.847,7.247,9.453l-3.623,3.6ZM22.312,5.1H17.186V0h5.125V5.1Z" transform="translate(0.751)" fill="#0dc5d4"/>
  </g>
</svg>
